G04 #@! TF.GenerationSoftware,KiCad,Pcbnew,(5.1.2)-2*
G04 #@! TF.CreationDate,2019-08-09T21:51:18-03:00*
G04 #@! TF.ProjectId,minicurso,6d696e69-6375-4727-936f-2e6b69636164,rev?*
G04 #@! TF.SameCoordinates,Original*
G04 #@! TF.FileFunction,Legend,Top*
G04 #@! TF.FilePolarity,Positive*
%FSLAX46Y46*%
G04 Gerber Fmt 4.6, Leading zero omitted, Abs format (unit mm)*
G04 Created by KiCad (PCBNEW (5.1.2)-2) date 2019-08-09 21:51:18*
%MOMM*%
%LPD*%
G04 APERTURE LIST*
%ADD10C,0.120000*%
%ADD11C,0.150000*%
G04 APERTURE END LIST*
D10*
X153378478Y-64838478D02*
G75*
G03X151540000Y-60400000I-1838478J1838478D01*
G01*
X149701522Y-64838478D02*
G75*
G02X151540000Y-60400000I1838478J1838478D01*
G01*
X149740000Y-64850000D02*
X153340000Y-64850000D01*
X145870000Y-61320000D02*
X144920000Y-61320000D01*
X140130000Y-61320000D02*
X141080000Y-61320000D01*
X144920000Y-60400000D02*
X141080000Y-60400000D01*
X144920000Y-62240000D02*
X144920000Y-60400000D01*
X141080000Y-62240000D02*
X144920000Y-62240000D01*
X141080000Y-60400000D02*
X141080000Y-62240000D01*
X145870000Y-67620000D02*
X144920000Y-67620000D01*
X140130000Y-67620000D02*
X141080000Y-67620000D01*
X144920000Y-66700000D02*
X141080000Y-66700000D01*
X144920000Y-68540000D02*
X144920000Y-66700000D01*
X141080000Y-68540000D02*
X144920000Y-68540000D01*
X141080000Y-66700000D02*
X141080000Y-68540000D01*
X145870000Y-64470000D02*
X144920000Y-64470000D01*
X140130000Y-64470000D02*
X141080000Y-64470000D01*
X144920000Y-63550000D02*
X141080000Y-63550000D01*
X144920000Y-65390000D02*
X144920000Y-63550000D01*
X141080000Y-65390000D02*
X144920000Y-65390000D01*
X141080000Y-63550000D02*
X141080000Y-65390000D01*
X152730000Y-68365000D02*
X152730000Y-68430000D01*
X152730000Y-66190000D02*
X152730000Y-66255000D01*
X149490000Y-68365000D02*
X149490000Y-68430000D01*
X149490000Y-66190000D02*
X149490000Y-66255000D01*
X149490000Y-68430000D02*
X152730000Y-68430000D01*
X149490000Y-66190000D02*
X152730000Y-66190000D01*
D11*
X151444761Y-59987619D02*
X151349523Y-59940000D01*
X151254285Y-59844761D01*
X151111428Y-59701904D01*
X151016190Y-59654285D01*
X150920952Y-59654285D01*
X150968571Y-59892380D02*
X150873333Y-59844761D01*
X150778095Y-59749523D01*
X150730476Y-59559047D01*
X150730476Y-59225714D01*
X150778095Y-59035238D01*
X150873333Y-58940000D01*
X150968571Y-58892380D01*
X151159047Y-58892380D01*
X151254285Y-58940000D01*
X151349523Y-59035238D01*
X151397142Y-59225714D01*
X151397142Y-59559047D01*
X151349523Y-59749523D01*
X151254285Y-59844761D01*
X151159047Y-59892380D01*
X150968571Y-59892380D01*
X152349523Y-59892380D02*
X151778095Y-59892380D01*
X152063809Y-59892380D02*
X152063809Y-58892380D01*
X151968571Y-59035238D01*
X151873333Y-59130476D01*
X151778095Y-59178095D01*
X142833333Y-59852380D02*
X142500000Y-59376190D01*
X142261904Y-59852380D02*
X142261904Y-58852380D01*
X142642857Y-58852380D01*
X142738095Y-58900000D01*
X142785714Y-58947619D01*
X142833333Y-59042857D01*
X142833333Y-59185714D01*
X142785714Y-59280952D01*
X142738095Y-59328571D01*
X142642857Y-59376190D01*
X142261904Y-59376190D01*
X143785714Y-59852380D02*
X143214285Y-59852380D01*
X143500000Y-59852380D02*
X143500000Y-58852380D01*
X143404761Y-58995238D01*
X143309523Y-59090476D01*
X143214285Y-59138095D01*
X142833333Y-66152380D02*
X142500000Y-65676190D01*
X142261904Y-66152380D02*
X142261904Y-65152380D01*
X142642857Y-65152380D01*
X142738095Y-65200000D01*
X142785714Y-65247619D01*
X142833333Y-65342857D01*
X142833333Y-65485714D01*
X142785714Y-65580952D01*
X142738095Y-65628571D01*
X142642857Y-65676190D01*
X142261904Y-65676190D01*
X143166666Y-65152380D02*
X143785714Y-65152380D01*
X143452380Y-65533333D01*
X143595238Y-65533333D01*
X143690476Y-65580952D01*
X143738095Y-65628571D01*
X143785714Y-65723809D01*
X143785714Y-65961904D01*
X143738095Y-66057142D01*
X143690476Y-66104761D01*
X143595238Y-66152380D01*
X143309523Y-66152380D01*
X143214285Y-66104761D01*
X143166666Y-66057142D01*
X142833333Y-63002380D02*
X142500000Y-62526190D01*
X142261904Y-63002380D02*
X142261904Y-62002380D01*
X142642857Y-62002380D01*
X142738095Y-62050000D01*
X142785714Y-62097619D01*
X142833333Y-62192857D01*
X142833333Y-62335714D01*
X142785714Y-62430952D01*
X142738095Y-62478571D01*
X142642857Y-62526190D01*
X142261904Y-62526190D01*
X143214285Y-62097619D02*
X143261904Y-62050000D01*
X143357142Y-62002380D01*
X143595238Y-62002380D01*
X143690476Y-62050000D01*
X143738095Y-62097619D01*
X143785714Y-62192857D01*
X143785714Y-62288095D01*
X143738095Y-62430952D01*
X143166666Y-63002380D01*
X143785714Y-63002380D01*
X150943333Y-65417142D02*
X150895714Y-65464761D01*
X150752857Y-65512380D01*
X150657619Y-65512380D01*
X150514761Y-65464761D01*
X150419523Y-65369523D01*
X150371904Y-65274285D01*
X150324285Y-65083809D01*
X150324285Y-64940952D01*
X150371904Y-64750476D01*
X150419523Y-64655238D01*
X150514761Y-64560000D01*
X150657619Y-64512380D01*
X150752857Y-64512380D01*
X150895714Y-64560000D01*
X150943333Y-64607619D01*
X151895714Y-65512380D02*
X151324285Y-65512380D01*
X151610000Y-65512380D02*
X151610000Y-64512380D01*
X151514761Y-64655238D01*
X151419523Y-64750476D01*
X151324285Y-64798095D01*
M02*
